<svg viewBox="-13 0 512 512.00099" fill="#333333" xmlns="http://www.w3.org/2000/svg"><path d="m473.542969 85.109375-65.03125-69.683594c-9.152344-9.804687-22.089844-15.425781-35.503907-15.425781h-324.441406c-26.78125 0-48.566406 21.785156-48.566406 48.5625v414.875c0 26.777344 21.785156 48.5625 48.566406 48.5625h389.472656c26.777344 0 48.566407-21.785156 48.566407-48.5625v-345.195312c0-12.339844-4.640625-24.109376-13.0625-33.132813zm-133.136719-55.105469v113.96875c0 8.632813-7.023438 15.652344-15.652344 15.652344h-24.75v-129.621094zm-70.410156 0v129.621094h-108.144532c-8.632812 0-15.652343-7.019531-15.652343-15.648438v-113.972656zm-127.640625 451.992188v-196.492188c0-7.980468 6.488281-14.472656 14.46875-14.472656h169.109375c7.980468 0 14.472656 6.492188 14.472656 14.472656v196.492188zm314.246093-18.558594c0 10.230469-8.328124 18.558594-18.5625 18.558594h-67.628906v-196.492188c0-24.523437-19.953125-44.476562-44.476562-44.476562h-169.109375c-24.523438 0-44.472657 19.953125-44.472657 44.476562v196.492188h-63.785156c-10.234375 0-18.5625-8.324219-18.5625-18.558594v-414.875c0-10.234375 8.328125-18.558594 18.5625-18.558594h67.628906v113.96875c0 25.175782 20.480469 45.65625 45.65625 45.65625h162.902344c25.175782 0 45.65625-20.480468 45.65625-45.65625v-113.96875h2.597656c5.125 0 10.070313 2.148438 13.566407 5.898438l65.03125 69.679687c3.21875 3.449219 4.992187 7.945313 4.992187 12.660157v345.195312zm0 0"/><path d="m293.765625 304.003906h-104.773437c-8.285157 0-15.003907 6.714844-15.003907 15s6.71875 15.003906 15.003907 15.003906h104.773437c8.285156 0 15.003906-6.71875 15.003906-15.003906s-6.71875-15-15.003906-15zm0 0"/><path d="m293.765625 361.40625h-104.773437c-8.285157 0-15.003907 6.714844-15.003907 15s6.71875 15.003906 15.003907 15.003906h104.773437c8.285156 0 15.003906-6.71875 15.003906-15.003906s-6.71875-15-15.003906-15zm0 0"/><path d="m293.765625 419.019531h-104.773437c-8.285157 0-15.003907 6.71875-15.003907 15.003907 0 8.285156 6.71875 15.003906 15.003907 15.003906h104.773437c8.285156 0 15.003906-6.71875 15.003906-15.003906 0-8.285157-6.71875-15.003907-15.003906-15.003907zm0 0"/></svg>